<?xml version="1.0" encoding="UTF-8"?>
<svg width="600" height="400" viewBox="0 0 600 400" fill="none" xmlns="http://www.w3.org/2000/svg">
  <!-- 背景 -->
  <rect width="600" height="400" rx="8" fill="#e0e0e0"/>
  
  <!-- 图表网格 -->
  <path d="M50 350H550M50 50V350" stroke="#3b82f6" stroke-width="1"/>
  <path d="M50 350H550M50 50V350" stroke="#3b82f6" stroke-width="1" stroke-dasharray="4 4"/>
  
  <!-- 折线图 -->
  <path d="M50 300L150 250L250 280L350 200L450 150L550 180" stroke="#60a5fa" stroke-width="3"/>
  
  <!-- 柱状图 -->
  <rect x="80" y="250" width="40" height="100" fill="#2563eb" fill-opacity="0.6"/>
  <rect x="180" y="200" width="40" height="150" fill="#2563eb" fill-opacity="0.6"/>
  <rect x="280" y="220" width="40" height="130" fill="#2563eb" fill-opacity="0.6"/>
  <rect x="380" y="180" width="40" height="170" fill="#2563eb" fill-opacity="0.6"/>
  <rect x="480" y="150" width="40" height="200" fill="#2563eb" fill-opacity="0.6"/>
  
  <!-- 数据点 -->
  <circle cx="150" cy="250" r="4" fill="#60a5fa"/>
  <circle cx="250" cy="280" r="4" fill="#60a5fa"/>
  <circle cx="350" cy="200" r="4" fill="#60a5fa"/>
  <circle cx="450" cy="150" r="4" fill="#60a5fa"/>
  
  <!-- 标题和图例 -->
  <text x="50" y="30" fill="#374151" font-family="Arial" font-size="16">资金计划执行情况</text>
  <rect x="450" y="20" width="12" height="12" fill="#60a5fa"/>
  <text x="470" y="30" fill="#374151" font-family="Arial" font-size="12">计划完成率</text>
</svg> 